<?xml version="1.0" encoding="UTF-8"?>
<svg xmlns="http://www.w3.org/2000/svg" xmlns:xlink="http://www.w3.org/1999/xlink" viewBox="0 0 48 48" version="1.1">
<g id="surface1">
<path style=" fill:#3F51B5;" d="M 42 13 C 42 13.554688 41.554688 14 41 14 L 7 14 C 6.449219 14 6 13.554688 6 13 L 6 7 C 6 6.445313 6.449219 6 7 6 L 41 6 C 41.554688 6 42 6.445313 42 7 Z "/>
<path style=" fill:#BBDEFB;" d="M 6 11 L 42 11 L 42 42 L 6 42 Z "/>
<path style=" fill:#1976D2;" d="M 36 31 L 16 31 L 16 29 L 36 29 Z M 36 25 L 16 25 L 16 27 L 36 27 Z M 36 33 L 16 33 L 16 35 L 36 35 Z M 12 27 L 14 27 L 14 25 L 12 25 Z M 12 31 L 14 31 L 14 29 L 12 29 Z M 12 35 L 14 35 L 14 33 L 12 33 Z "/>
<path style=" fill:#1976D2;" d="M 12 15 L 36 15 L 36 20 L 12 20 Z "/>
</g>
</svg>
