<?xml version="1.0" encoding="UTF-8"?>
<svg xmlns="http://www.w3.org/2000/svg" xmlns:xlink="http://www.w3.org/1999/xlink" viewBox="0 0 48 48" version="1.1">
<g id="surface1">
<path style=" fill:#3949AB;" d="M 40.601563 40.101563 L 39.199219 40.101563 C 39 40.101563 38.898438 40.101563 38.699219 40.101563 L 35.601563 39.699219 C 33.199219 39.398438 30.699219 39.5 28.300781 40.101563 L 24.699219 41 C 24.199219 41.101563 23.601563 41.101563 23.101563 41 L 19.601563 40 C 17.199219 39.398438 14.800781 39.300781 12.300781 39.601563 L 9.199219 40 C 9 40 8.898438 40 8.699219 40 L 7.398438 40 C 5.5 40 4 38.5 4 36.601563 C 4 36.199219 4.101563 35.699219 4.199219 35.300781 L 4.398438 34.699219 C 5.398438 32.199219 5.5 29.398438 4.800781 26.800781 L 4.199219 24.800781 C 4 24.101563 4 23.5 4.199219 22.800781 L 4.5 22 C 5.398438 19.300781 5.300781 16.300781 4.300781 13.601563 L 4.199219 13.300781 C 4.101563 13.101563 4 12.699219 4 12.300781 L 4 11.300781 C 4 9.398438 5.5 7.898438 7.398438 7.898438 L 8.800781 7.898438 C 9 7.898438 9.101563 7.898438 9.300781 7.898438 L 12.398438 8.300781 C 14.800781 8.601563 17.300781 8.5 19.699219 7.898438 L 23.300781 7 C 23.800781 6.898438 24.398438 6.898438 24.898438 7 L 28.398438 8 C 30.800781 8.601563 33.199219 8.699219 35.699219 8.398438 L 38.800781 8 C 39 8 39.101563 8 39.300781 8 L 40.699219 8 C 42.601563 8 44.101563 9.5 44.101563 11.398438 L 44.101563 12.398438 C 44.101563 12.800781 44 13.300781 43.898438 13.699219 L 43.800781 14 C 42.699219 16.699219 42.601563 19.601563 43.601563 22.398438 L 43.898438 23.199219 C 44.101563 23.800781 44.101563 24.5 43.898438 25.199219 L 43.300781 27.199219 C 42.601563 29.800781 42.699219 32.601563 43.699219 35.101563 L 43.898438 35.699219 C 44.101563 36.101563 44.101563 36.5 44.101563 37 C 44 38.601563 42.5 40.101563 40.601563 40.101563 Z "/>
<path style=" fill:#BBDEFB;" d="M 38 36 L 10 36 C 9.398438 36 9 35.601563 9 35 L 9 13 C 9 12.398438 9.398438 12 10 12 L 38 12 C 38.601563 12 39 12.398438 39 13 L 39 35 C 39 35.601563 38.601563 36 38 36 Z "/>
</g>
</svg>
