<?xml version="1.0" encoding="UTF-8"?>
<svg xmlns="http://www.w3.org/2000/svg" xmlns:xlink="http://www.w3.org/1999/xlink" viewBox="0 0 48 48" version="1.1">
<g id="surface1">
<path style=" fill:#90CAF9;" d="M 19 21 L 7 21 C 5.894531 21 5 20.105469 5 19 C 5 17.894531 5.894531 17 7 17 L 19 17 C 20.105469 17 21 17.894531 21 19 C 21 20.105469 20.105469 21 19 21 Z "/>
<path style=" fill:#90CAF9;" d="M 19 31 L 7 31 C 5.894531 31 5 30.105469 5 29 C 5 27.894531 5.894531 27 7 27 L 19 27 C 20.105469 27 21 27.894531 21 29 C 21 30.105469 20.105469 31 19 31 Z "/>
<path style=" fill:#90CAF9;" d="M 41 21 L 29 21 C 27.894531 21 27 20.105469 27 19 C 27 17.894531 27.894531 17 29 17 L 41 17 C 42.105469 17 43 17.894531 43 19 C 43 20.105469 42.105469 21 41 21 Z "/>
<path style=" fill:#90CAF9;" d="M 41 31 L 29 31 C 27.894531 31 27 30.105469 27 29 C 27 27.894531 27.894531 27 29 27 L 41 27 C 42.105469 27 43 27.894531 43 29 C 43 30.105469 42.105469 31 41 31 Z "/>
<path style=" fill:#AB47BC;" d="M 4 42 L 4 6 L 22 6 L 22 42 Z M 8 38 L 18 38 L 18 10 L 8 10 Z "/>
<path style=" fill:#AB47BC;" d="M 26 42 L 26 6 L 44 6 L 44 42 Z M 30 38 L 40 38 L 40 10 L 30 10 Z "/>
</g>
</svg>
