<?xml version="1.0" encoding="UTF-8"?>
<svg xmlns="http://www.w3.org/2000/svg" xmlns:xlink="http://www.w3.org/1999/xlink" viewBox="0 0 48 48" version="1.1">
<g id="surface1">
<path style=" fill:#2196F3;" d="M 6 22 L 10 22 L 10 26 L 6 26 Z "/>
<path style=" fill:#2196F3;" d="M 6 14 L 10 14 L 10 18 L 6 18 Z "/>
<path style=" fill:#2196F3;" d="M 6 30 L 10 30 L 10 34 L 6 34 Z "/>
<path style=" fill:#2196F3;" d="M 6 6 L 10 6 L 10 10 L 6 10 Z "/>
<path style=" fill:#2196F3;" d="M 6 38 L 10 38 L 10 42 L 6 42 Z "/>
<path style=" fill:#2196F3;" d="M 14 22 L 42 22 L 42 26 L 14 26 Z "/>
<path style=" fill:#2196F3;" d="M 14 14 L 42 14 L 42 18 L 14 18 Z "/>
<path style=" fill:#2196F3;" d="M 14 30 L 42 30 L 42 34 L 14 34 Z "/>
<path style=" fill:#2196F3;" d="M 14 6 L 42 6 L 42 10 L 14 10 Z "/>
<path style=" fill:#2196F3;" d="M 14 38 L 42 38 L 42 42 L 14 42 Z "/>
</g>
</svg>
