<?xml version="1.0" encoding="UTF-8"?>
<svg xmlns="http://www.w3.org/2000/svg" xmlns:xlink="http://www.w3.org/1999/xlink" viewBox="0 0 48 48" version="1.1">
<g id="surface1">
<path style=" fill:#90CAF9;" d="M 24 41.5 C 22.894531 41.5 22 40.605469 22 39.5 L 22 9 C 22 7.894531 22.894531 7 24 7 C 25.105469 7 26 7.894531 26 9 L 26 39.5 C 26 40.605469 25.105469 41.5 24 41.5 Z "/>
<path style=" fill:#90CAF9;" d="M 39 21 L 9 21 C 7.894531 21 7 20.105469 7 19 C 7 17.894531 7.894531 17 9 17 L 39 17 C 40.105469 17 41 17.894531 41 19 C 41 20.105469 40.105469 21 39 21 Z "/>
<path style=" fill:#90CAF9;" d="M 39 31 L 9 31 C 7.894531 31 7 30.105469 7 29 C 7 27.894531 7.894531 27 9 27 L 39 27 C 40.105469 27 41 27.894531 41 29 C 41 30.105469 40.105469 31 39 31 Z "/>
<path style=" fill:#43A047;" d="M 6 42 L 6 6 L 42 6 L 42 42 Z M 10 38 L 38 38 L 38 10 L 10 10 Z "/>
</g>
</svg>
