<?xml version="1.0" encoding="UTF-8"?>
<svg xmlns="http://www.w3.org/2000/svg" xmlns:xlink="http://www.w3.org/1999/xlink" viewBox="0 0 48 48" version="1.1">
<g id="surface1">
<path style=" fill:#FFC107;" d="M 22.972656 22 L 6 22 L 6 5 L 23 5 Z "/>
<path style=" fill:#7CB342;" d="M 6 26 L 23 26 L 23 43 L 6 43 Z "/>
<path style=" fill:#FFF9C4;" d="M 17 10 C 17 11.105469 17.894531 12 19 12 C 20.105469 12 21 11.105469 21 10 C 21 8.894531 20.105469 8 19 8 C 17.894531 8 17 8.894531 17 10 "/>
<path style=" fill:#D85700;" d="M 13 11 L 7 19 L 19 19 Z "/>
<path style=" fill:#EF7E03;" d="M 18 14 L 13.875 19 L 22 19 Z "/>
<path style=" fill:#FFFFFF;" d="M 12.488281 30.519531 C 12.488281 29.414063 13.386719 28.519531 14.5 28.519531 C 15.613281 28.519531 16.511719 29.414063 16.511719 30.519531 C 16.511719 31.625 14.5 34.519531 14.5 34.519531 C 14.5 34.519531 12.488281 31.625 12.488281 30.519531 "/>
<path style=" fill:#FFFFFF;" d="M 16.511719 38.519531 C 16.511719 39.628906 15.613281 40.519531 14.5 40.519531 C 13.386719 40.519531 12.488281 39.628906 12.488281 38.519531 C 12.488281 37.414063 14.5 34.519531 14.5 34.519531 C 14.5 34.519531 16.511719 37.414063 16.511719 38.519531 "/>
<path style=" fill:#FFFFFF;" d="M 10.007813 34.253906 C 9.042969 33.695313 8.714844 32.476563 9.269531 31.519531 C 9.824219 30.5625 11.058594 30.234375 12.019531 30.789063 C 12.984375 31.34375 14.5 34.519531 14.5 34.519531 C 14.5 34.519531 10.972656 34.804688 10.007813 34.253906 "/>
<path style=" fill:#FFFFFF;" d="M 18.992188 34.785156 C 19.957031 35.339844 20.285156 36.5625 19.730469 37.515625 C 19.175781 38.476563 17.941406 38.804688 16.980469 38.25 C 16.015625 37.699219 14.5 34.519531 14.5 34.519531 C 14.5 34.519531 18.027344 34.234375 18.992188 34.785156 "/>
<path style=" fill:#FFFFFF;" d="M 18.992188 34.253906 C 19.957031 33.695313 20.285156 32.476563 19.730469 31.519531 C 19.175781 30.5625 17.941406 30.234375 16.980469 30.789063 C 16.015625 31.339844 14.5 34.519531 14.5 34.519531 C 14.5 34.519531 18.027344 34.804688 18.992188 34.253906 "/>
<path style=" fill:#FFFFFF;" d="M 10.007813 34.785156 C 9.042969 35.339844 8.714844 36.5625 9.269531 37.515625 C 9.824219 38.476563 11.058594 38.804688 12.019531 38.25 C 12.984375 37.695313 14.5 34.519531 14.5 34.519531 C 14.5 34.519531 10.972656 34.234375 10.007813 34.785156 "/>
<path style=" fill:#FFC107;" d="M 16.5 34.597656 C 16.5 35.699219 15.605469 36.59375 14.5 36.59375 C 13.394531 36.59375 12.5 35.699219 12.5 34.597656 C 12.5 33.488281 13.394531 32.59375 14.5 32.59375 C 15.605469 32.59375 16.5 33.488281 16.5 34.597656 "/>
<path style=" fill:#90CAF9;" d="M 27 8 L 42 8 L 42 12 L 27 12 Z "/>
<path style=" fill:#90CAF9;" d="M 27 15 L 38 15 L 38 19 L 27 19 Z "/>
<path style=" fill:#90CAF9;" d="M 27 29 L 42 29 L 42 33 L 27 33 Z "/>
<path style=" fill:#90CAF9;" d="M 27 36 L 38 36 L 38 40 L 27 40 Z "/>
</g>
</svg>
