<?xml version="1.0" encoding="UTF-8"?>
<svg xmlns="http://www.w3.org/2000/svg" xmlns:xlink="http://www.w3.org/1999/xlink" viewBox="0 0 48 48" version="1.1">
<g id="surface1">
<path style=" fill:#00BCD4;" d="M 24 45 C 24 43 17.867188 39.613281 16.003906 38.90625 C 9.578125 36.476563 7 31 8 24 L 10 24 C 9 31 14.832031 36 22 36 L 26 36 C 33.167969 36 39 31 38 24 L 40 24 C 41 31 38.421875 36.476563 32 38.90625 C 30.132813 39.613281 24 43.140625 24 45 Z "/>
<path style=" fill:#00BCD4;" d="M 31.6875 34.960938 C 34.207031 34.121094 29.1875 37.988281 24.058594 38.015625 C 18.933594 38.042969 13.945313 34.304688 16.621094 35.074219 C 21.8125 36.5625 21.800781 28.996094 22 24 C 22.226563 18.425781 23 9 23 9 L 25 9 C 25 9 25.808594 20.234375 26 24 C 26.257813 28.992188 26.6875 36.625 31.6875 34.960938 Z "/>
<path style=" fill:#00BCD4;" d="M 25 9 C 25 9.550781 24.550781 10 24 10 C 23.449219 10 23 9.550781 23 9 C 23 8.449219 23.449219 8 24 8 C 24.550781 8 25 8.449219 25 9 Z "/>
<path style=" fill:#00BCD4;" d="M 18 17 L 30 17 L 30 19 L 18 19 Z "/>
<path style=" fill:#0097A7;" d="M 22.703125 12.808594 C 22.761719 12.039063 22.8125 11.347656 22.859375 10.773438 C 21.769531 10.324219 21 9.253906 21 8 C 21 6.34375 22.34375 5 24 5 C 25.65625 5 27 6.34375 27 8 C 27 9.257813 26.222656 10.332031 25.128906 10.777344 C 25.167969 11.355469 25.21875 12.050781 25.269531 12.816406 C 27.410156 12.253906 29 10.320313 29 8 C 29 5.238281 26.761719 3 24 3 C 21.238281 3 19 5.238281 19 8 C 19 10.308594 20.574219 12.234375 22.703125 12.808594 Z "/>
<path style=" fill:#0097A7;" d="M 33 18 C 33 19.105469 32.105469 20 31 20 C 29.894531 20 29 19.105469 29 18 C 29 16.894531 29.894531 16 31 16 C 32.105469 16 33 16.894531 33 18 Z "/>
<path style=" fill:#0097A7;" d="M 19 18 C 19 19.105469 18.105469 20 17 20 C 15.894531 20 15 19.105469 15 18 C 15 16.894531 15.894531 16 17 16 C 18.105469 16 19 16.894531 19 18 Z "/>
<path style=" fill:#0097A7;" d="M 6 26 C 6 26 7 23 10 20 C 11 21 12 27 12 27 C 12 27 10 25 6 26 Z "/>
<path style=" fill:#0097A7;" d="M 42 26 C 42 26 41 23 38 20 C 37 21 36 27 36 27 C 36 27 38 25 42 26 Z "/>
</g>
</svg>
